<?xml version="1.0" encoding="utf-8"?>
<!-- Generator: Adobe Illustrator 24.0.0, SVG Export Plug-In . SVG Version: 6.00 Build 0)  -->
<svg version="1.1" id="Layer_1" xmlns="http://www.w3.org/2000/svg" xmlns:xlink="http://www.w3.org/1999/xlink" x="0px" y="0px"
	 viewBox="0 0 512 512" style="enable-background:new 0 0 512 512;" xml:space="preserve">
<style type="text/css">
	.st0{fill:#FFFFFF;}
</style>
<path class="st0" d="M256,0C114.6,0,0,114.6,0,256s114.6,256,256,256s256-114.6,256-256S397.4,0,256,0z M289,400.6
	c-63,1.1-86.9-44.9-86.9-77.2v-94.5h-29.3v-37.4c43.9-15.8,54.4-55.4,56.9-77.9c0.2-1.6,1.4-2.2,2.1-2.2h42.3v73.7h57.9v43.8H274v90
	c0.2,12.2,4.7,29.1,27.8,28.5c7.7-0.2,17.9-2.4,23.3-5l13.9,41.2C333.9,391.3,310.3,400.2,289,400.6z"/>
</svg>
