<?xml version="1.0" encoding="utf-8"?>
<!-- Generator: Adobe Illustrator 24.0.0, SVG Export Plug-In . SVG Version: 6.00 Build 0)  -->
<svg version="1.1" id="Capa_1" xmlns="http://www.w3.org/2000/svg" xmlns:xlink="http://www.w3.org/1999/xlink" x="0px" y="0px"
	 viewBox="0 0 512 512" style="enable-background:new 0 0 512 512;" xml:space="preserve">
<style type="text/css">
	.st0{fill:#FFFFFF;}
</style>
<g>
	<g>
		<path class="st0" d="M257,0C116.4,0,0,114.4,0,255s116.4,257,257,257s255-116.4,255-257S397.6,0,257,0z M383.2,338.8
			c11.7,11.7,11.7,30.7,0,42.4c-11.6,11.6-30.6,11.8-42.4,0L257,297.4l-85.8,83.8c-11.7,11.7-30.7,11.7-42.4,0
			c-11.7-11.7-11.7-30.7,0-42.4l83.8-83.8l-83.8-83.8c-11.7-11.7-11.7-30.7,0-42.4c11.7-11.7,30.7-11.7,42.4,0l85.8,83.8l83.8-83.8
			c11.7-11.7,30.7-11.7,42.4,0c11.7,11.7,11.7,30.7,0,42.4L299.4,255L383.2,338.8z"/>
	</g>
</g>
</svg>
