<svg xmlns="http://www.w3.org/2000/svg" xmlns:xlink="http://www.w3.org/1999/xlink" viewBox="0 0 674.46 674.46"><defs><style>.cls-1{fill:#e8e8e8;}.cls-2{fill:#e9e9e9;}.cls-3{fill:#eaeaea;}.cls-4{fill:#ebebeb;}.cls-5{fill:#ececec;}.cls-6{fill:#ededed;}.cls-7{fill:#eee;}.cls-8{fill:#efefef;}.cls-9{fill:#f0f0f0;}.cls-10{fill:#f1f1f1;}.cls-11{fill:#f2f2f2;}.cls-12{fill:#f3f3f3;}.cls-13{fill:#f4f4f4;}.cls-14{fill:#f5f5f5;}.cls-15{fill:#f6f6f6;}.cls-16{fill:#f7f7f7;}.cls-17{fill:#f8f8f8;}.cls-18{fill:#f9f9f9;}.cls-19{fill:#fafafa;}.cls-20{fill:#fbfbfb;}.cls-21{fill:#fcfcfc;}.cls-22{fill:#fdfdfd;}.cls-23{fill:#fefefe;}.cls-24{fill:#fff;}.cls-25{fill:#d6b185;}.cls-26{fill:url(#linear-gradient);}.cls-27{fill:#e695b9;}.cls-28{fill:#e27ca1;}.cls-29{fill:url(#linear-gradient-2);}.cls-30{fill:url(#linear-gradient-3);}.cls-31{fill:#61abeb;}.cls-32{fill:#cc2e78;}.cls-33{fill:#65a7dd;}.cls-34{fill:#faf139;}.cls-35{fill:#9dc44d;}</style><linearGradient id="linear-gradient" x1="366.21" y1="108.09" x2="413.85" y2="108.09" gradientUnits="userSpaceOnUse"><stop offset="0" stop-color="#b26980"/><stop offset="0.96" stop-color="#e06a8a"/></linearGradient><linearGradient id="linear-gradient-2" x1="47.97" y1="329.49" x2="555.12" y2="329.49" gradientTransform="translate(48.43)" gradientUnits="userSpaceOnUse"><stop offset="0" stop-color="#e383a1"/><stop offset="0.96" stop-color="#e06a8a"/></linearGradient><linearGradient id="linear-gradient-3" x1="47.97" y1="312.87" x2="555.12" y2="312.87" gradientTransform="translate(48.43)" xlink:href="#linear-gradient"/></defs><title>donutLogoWithoutShadow</title><g id="Objects"><circle class="cls-1" cx="337.23" cy="337.23" r="309.15"/><circle class="cls-1" cx="337.23" cy="337.23" r="337.23"/><circle class="cls-2" cx="337.23" cy="337.23" r="335.5"/><circle class="cls-3" cx="337.23" cy="337.23" r="333.77"/><circle class="cls-4" cx="337.23" cy="337.23" r="332.04"/><circle class="cls-5" cx="337.23" cy="337.23" r="330.32"/><circle class="cls-6" cx="337.23" cy="337.23" r="328.59"/><circle class="cls-7" cx="337.23" cy="337.23" r="326.86"/><circle class="cls-8" cx="337.23" cy="337.23" r="325.13"/><circle class="cls-9" cx="337.23" cy="337.23" r="323.4"/><circle class="cls-10" cx="337.23" cy="337.23" r="321.68"/><circle class="cls-11" cx="337.23" cy="337.23" r="319.95"/><circle class="cls-12" cx="337.23" cy="337.23" r="318.22"/><circle class="cls-13" cx="337.23" cy="337.23" r="316.49"/><circle class="cls-13" cx="337.23" cy="337.23" r="314.76"/><circle class="cls-14" cx="337.23" cy="337.23" r="313.03"/><circle class="cls-15" cx="337.23" cy="337.23" r="311.31"/><circle class="cls-16" cx="337.23" cy="337.23" r="309.58"/><circle class="cls-17" cx="337.23" cy="337.23" r="307.85"/><circle class="cls-18" cx="337.23" cy="337.23" r="306.12"/><circle class="cls-19" cx="337.23" cy="337.23" r="304.39"/><circle class="cls-20" cx="337.23" cy="337.23" r="302.67"/><circle class="cls-21" cx="337.23" cy="337.23" r="300.94"/><circle class="cls-22" cx="337.23" cy="337.23" r="299.21"/><circle class="cls-23" cx="337.23" cy="337.23" r="297.48"/><circle class="cls-24" cx="337.23" cy="337.23" r="295.75"/><circle class="cls-23" cx="337.23" cy="337.23" r="295.14"/><circle class="cls-22" cx="337.23" cy="337.23" r="294.53"/><circle class="cls-21" cx="337.23" cy="337.23" r="293.92"/><circle class="cls-20" cx="337.23" cy="337.23" r="293.31"/><circle class="cls-19" cx="337.23" cy="337.23" r="292.7"/><circle class="cls-18" cx="337.23" cy="337.23" r="292.08"/><circle class="cls-17" cx="337.23" cy="337.23" r="291.47"/><circle class="cls-16" cx="337.23" cy="337.23" r="290.86"/><circle class="cls-15" cx="337.23" cy="337.23" r="290.25"/><circle class="cls-14" cx="337.23" cy="337.23" r="289.64"/><circle class="cls-13" cx="337.23" cy="337.23" r="289.03"/><circle class="cls-12" cx="337.23" cy="337.23" r="288.42"/><circle class="cls-12" cx="337.23" cy="337.23" r="287.8"/><circle class="cls-11" cx="337.23" cy="337.23" r="287.19"/><circle class="cls-10" cx="337.23" cy="337.23" r="286.58"/><circle class="cls-9" cx="337.23" cy="337.23" r="285.97"/><circle class="cls-8" cx="337.23" cy="337.23" r="285.36"/><circle class="cls-7" cx="337.23" cy="337.23" r="284.75"/><circle class="cls-6" cx="337.23" cy="337.23" r="284.14"/><circle class="cls-5" cx="337.23" cy="337.23" r="283.52"/><circle class="cls-4" cx="337.23" cy="337.23" r="282.91"/><circle class="cls-3" cx="337.23" cy="337.23" r="282.3"/><circle class="cls-2" cx="337.23" cy="337.23" r="281.69"/><circle class="cls-1" cx="337.23" cy="337.23" r="281.08"/><path class="cls-25" d="M403.27,109.32c.21,2.36.16,4.86,1.33,6.91,1.54,2.71,4.8,4,6.71,6.43s2.21,5.53,3.06,8.42c5.11,17.54,26.28,23.3,43.05,30.56A113.16,113.16,0,0,1,504,199.1c-3.93,3.07-9.32,3.27-14.31,3.33L445.3,203c-12.56.16-25.58.22-37-4.93-29.8-13.41-26.6-45.77-44.22-68.91-2.15-2.82-4.49-5.59-5.82-8.88-2.37-5.83-1.28-12.43-.1-18.62,1.79-9.35,3.83-19,9.31-26.76,7.37-10.49,25.65-18,32.13-3.73C404.62,82.29,402.2,97.43,403.27,109.32Z"/><path class="cls-26" d="M390,63.33c-.7,2.41,1.37,16.5.64,18.89-1.84,6-1.68,14.88-.28,21a117.16,117.16,0,0,0,23.54,48c-11.21,4-24.33.44-33.14-7.55s-13.57-19.85-14.4-31.72c-.7-10,2.44-18.36,3.94-28,1.06-6.72-1.94-17.18,5.59-19.24A48.5,48.5,0,0,1,390,63.33Z"/><path class="cls-25" d="M598.71,303.66c-.21-1.05-.41-2.11-.63-3.16-1.51.38-3.05.69-4.6.94a52.7,52.7,0,0,1-25.3-2.15c-27.93-9.46-54.86-40-45.32-68.12,1.34-4-2.89-7.68-.78-11.1a53.14,53.14,0,0,1-54.83-37A53.81,53.81,0,0,1,465,160.83c-9.86,10.31-10.7,17-24.35,18.8a56.75,56.75,0,0,1-25.92-2.49c-31.37-10.62-47.65-46.2-36.38-79.47a65.92,65.92,0,0,1,2.88-7.08c0-.1.09-.21.14-.31C250.43,63.69,123,138,79,267.91,31.29,408.8,106.8,561.72,247.7,609.46A269.82,269.82,0,0,0,310,622.66c121.12,11,238.48-61.62,279.23-181.87A268.13,268.13,0,0,0,598.71,303.66Zm-179.54,79.5A89.78,89.78,0,1,1,363,269.31l.2.07A89.78,89.78,0,0,1,419.17,383.16Z"/><path class="cls-27" d="M110.73,245.46C151.17,126.09,267.11,53.67,387.26,63.34l.15-.31C256.44,36.44,123,110.77,79,240.66,31.29,381.55,106.81,534.47,247.7,582.21A270.45,270.45,0,0,0,310,595.42,274.41,274.41,0,0,1,279.4,587C138.5,539.27,63,386.35,110.73,245.46Z"/><path class="cls-28" d="M598.09,273.26c-1.51.38-3.05.68-4.6.93a52.82,52.82,0,0,0,5.22,2.23C598.51,275.36,598.31,274.31,598.09,273.26Z"/><path class="cls-29" d="M598.71,276.42a52.82,52.82,0,0,1-5.22-2.23,52.8,52.8,0,0,1-25.3-2.14,53.88,53.88,0,0,1-28.07-79.23,53.14,53.14,0,0,1-54.83-37,53.79,53.79,0,0,1-2.23-22.25,62.08,62.08,0,0,1-36.37,18.81,56.94,56.94,0,0,1-25.93-2.49c-31.36-10.63-47.64-46.21-36.37-79.48a68,68,0,0,1,2.87-7.08c-120.15-9.67-236.09,62.75-276.53,182.12C63,386.35,138.5,539.27,279.4,587A274.41,274.41,0,0,0,310,595.42c121.11,11,238.48-61.63,279.22-181.88A268,268,0,0,0,598.71,276.42ZM419.18,355.91A89.78,89.78,0,1,1,363,242.06l.2.07A89.79,89.79,0,0,1,419.18,355.91Z"/><path class="cls-30" d="M249.11,298.28A89.79,89.79,0,0,1,363,242.06l.2.07a91.1,91.1,0,0,1,13.63,6,89.7,89.7,0,0,0-27-14.79l-.2-.07a89.78,89.78,0,0,0-71.49,164A89.81,89.81,0,0,1,249.11,298.28Z"/><rect class="cls-31" x="193.4" y="152.9" width="7.01" height="40.08"/><rect class="cls-24" x="157.4" y="397.35" width="39.98" height="8.42" transform="translate(146.27 -36.33) rotate(19.77)"/><rect class="cls-32" x="298.62" y="487.6" width="8.42" height="40.68" transform="translate(-288.21 527.71) rotate(-61.11)"/><rect class="cls-33" x="462.75" y="432.89" width="41.47" height="7.01" transform="translate(196.75 -148.4) rotate(21.81)"/><rect class="cls-24" x="323.87" y="172.94" width="30.86" height="6.04" transform="translate(561.45 -135.06) rotate(98.12)"/><rect class="cls-32" x="462.75" y="237.28" width="30.86" height="6.23" transform="translate(51.1 562.96) rotate(-63.75)"/><rect class="cls-34" x="518.86" y="289.81" width="5.61" height="46.29" transform="translate(33.26 675.62) rotate(-67.56)"/><rect class="cls-32" x="186.39" y="274.86" width="37.88" height="6.53" transform="translate(210.78 -67.54) rotate(37.34)"/><rect class="cls-34" x="113.44" y="320.67" width="5.61" height="22.45"/><rect class="cls-33" x="216.75" y="521.46" width="5.61" height="22.45" transform="translate(-220 905.16) rotate(-107.88)"/><rect class="cls-24" x="435.38" y="533.69" width="5.61" height="22.45" transform="translate(87.15 -59.83) rotate(8.67)"/><rect class="cls-33" x="300.02" y="425.18" width="5.61" height="22.45" transform="translate(751.29 151.75) rotate(92.35)"/><rect class="cls-34" x="288.69" y="78.43" width="5.61" height="22.45" transform="translate(585.47 8.51) rotate(147.47)"/><rect class="cls-35" x="441.53" y="348.25" width="5.61" height="22.45" transform="translate(349.44 923.08) rotate(-119.42)"/><rect class="cls-35" x="136.19" y="242.79" width="5.61" height="33.97" transform="translate(409.07 142.05) rotate(94.6)"/></g></svg>